# xmcd CD database file
#
# Track frame offsets:
#	150
#	61950
#	107734
#	152576
#
# Disc length: 2884 seconds
#
# Revision: 0
# Processed by: cddbd v1.5.2PL0 Copyright (c) Steve Scherf et al.
# Submitted via: CDex 1.70beta2
#
DISCID=290b4204
DTITLE=Hannibal and the Sunrise Orchestra - Live In Lausanne 
DYEAR=1976
DGENRE=Jazz
TTITLE0=My Favorite Things
TTITLE1=Grandma
TTITLE2=Episode Zero
TTITLE3=The Light
EXTD=YEAR: 1976
EXTT0=
EXTT1=
EXTT2=
EXTT3=
PLAYORDER=
